<?xml version="1.0" encoding="UTF-8"?>
<svg id="Capa_1" data-name="Capa 1" xmlns="http://www.w3.org/2000/svg" viewBox="0 0 33.34 33.28">
  <defs>
    <style>
      .cls-1, .cls-2 {
        fill: #fff;
      }

      .cls-3, .cls-2 {
        isolation: isolate;
      }

      .cls-4 {
        fill: #00a652;
      }

      .cls-2 {
        font-family: NotoSans-ExtraBold, 'Noto Sans';
        font-size: 4.28px;
        font-weight: 700;
      }
    </style>
  </defs>
  <path class="cls-4" d="M32.19,33.28H1.15c-.63,0-1.15-.52-1.15-1.15V1.15C0,.52.52,0,1.15,0h31.04c.63,0,1.15.52,1.15,1.15v30.99c0,.63-.52,1.15-1.15,1.15Z"/>
  <g>
    <path class="cls-1" d="M31.26,32.62H2.07c-.76,0-1.38-.62-1.38-1.38V2.05c0-.76.62-1.38,1.38-1.38h29.19c.76,0,1.38.62,1.38,1.38v29.19c0,.76-.62,1.38-1.38,1.38h0ZM2.07,1.56c-.27,0-.49.22-.49.49v29.19c0,.27.22.49.49.49h29.19c.27,0,.49-.22.49-.49V2.05c0-.27-.22-.49-.49-.49H2.07Z"/>
    <polygon class="cls-1" points="30.24 21.57 3.03 21.57 3.03 7.36 16.8 2.26 30.25 7.36 30.25 9.56 29.4 9.56 29.4 7.95 16.79 3.16 3.88 7.95 3.88 20.73 30.24 20.73 30.24 21.57"/>
    <g>
      <circle class="cls-1" cx="8.17" cy="11.11" r=".92"/>
      <path class="cls-1" d="M10.87,15.46l-1.08-2.99c-.08-.22-.29-.35-.52-.32h-2.23c-.21-.01-.41.12-.49.32l-1.08,2.99c-.09.26.04.54.3.63.06.02.11.03.17.03.2,0,.39-.13.46-.33l.61-1.7s.03-.01.03,0v5.61c0,.28.23.51.51.51h0c.28,0,.51-.23.51-.51v-3.6s0-.01.01-.01h.18s.01,0,.01.01v3.6c0,.28.23.51.51.51h0c.28,0,.51-.23.51-.51v-5.69s.02-.02.03,0l.64,1.77c.07.2.26.33.46.33.06,0,.11,0,.17-.03.26-.09.39-.38.3-.63Z"/>
    </g>
    <g>
      <circle class="cls-1" cx="12.65" cy="11.11" r=".92"/>
      <path class="cls-1" d="M15.35,15.46l-1.08-2.99c-.08-.22-.29-.35-.52-.32h-2.23c-.21-.01-.41.12-.49.32l-1.08,2.99c-.09.26.04.54.3.63.06.02.11.03.17.03.2,0,.39-.13.46-.33l.61-1.7s.03-.01.03,0v5.61c0,.28.23.51.51.51h0c.28,0,.51-.23.51-.51v-3.6s0-.01.01-.01h.18s.01,0,.01.01v3.6c0,.28.23.51.51.51h0c.28,0,.51-.23.51-.51v-5.69s.02-.02.03,0l.64,1.77c.07.2.26.33.46.33.06,0,.11,0,.17-.03.26-.09.39-.38.3-.63Z"/>
    </g>
    <g>
      <circle class="cls-1" cx="17.19" cy="11.11" r=".92"/>
      <path class="cls-1" d="M19.89,15.46l-1.08-2.99c-.08-.22-.29-.35-.52-.32h-2.23c-.21-.01-.41.12-.49.32l-1.08,2.99c-.09.26.04.54.3.63.06.02.11.03.17.03.2,0,.39-.13.46-.33l.61-1.7s.03-.01.03,0v5.61c0,.28.23.51.51.51h0c.28,0,.51-.23.51-.51v-3.6s0-.01.01-.01h.18s.01,0,.01.01v3.6c0,.28.23.51.51.51h0c.28,0,.51-.23.51-.51v-5.69s.02-.02.03,0l.64,1.77c.07.2.26.33.46.33.06,0,.11,0,.17-.03.26-.09.39-.38.3-.63h0Z"/>
    </g>
    <g>
      <circle class="cls-1" cx="25.86" cy="11.11" r=".92"/>
      <path class="cls-1" d="M29.33,14.91l-.65-1.63c-.04-.09-.1-.16-.18-.21l-1.53-.9c-.09-.06-.2-.07-.29-.05h0l-.69.13h-.03c-.1.02-.19.08-.25.17l-1.63,2.41c-.13.19-.08.46.12.59.07.05.15.07.24.07.13,0,.27-.07.35-.19l1.26-1.87.11,1.96h.01l-.92,1.7s-.04.08-.04.13l-.47,2.54c-.04.23.11.45.34.5.03,0,.05,0,.08,0,.2,0,.38-.14.42-.35l.46-2.47.84-1.56.13,1.92c0,.08.03.15.07.21l1.24,1.83c.08.12.21.19.35.19.08,0,.16-.02.24-.07.19-.13.25-.4.12-.59l-1.18-1.74-.17-2.38h.01l-.21-1.82.47.28.59,1.49c.07.17.23.27.39.27.05,0,.11,0,.16-.03.22-.09.33-.33.24-.55h-.02Z"/>
    </g>
    <g>
      <g class="cls-3">
        <text class="cls-2" transform="translate(7 26.91)"><tspan x="0" y="0">REFUGIO</tspan></text>
      </g>
      <g class="cls-3">
        <text class="cls-2" transform="translate(4.81 30.88)"><tspan x="0" y="0">TEMPORAL</tspan></text>
      </g>
    </g>
  </g>
</svg>